<?xml version="1.0" standalone="no"?>
<!DOCTYPE svg PUBLIC "-//W3C//DTD SVG 20010904//EN"
 "http://www.w3.org/TR/2001/REC-SVG-20010904/DTD/svg10.dtd">
<svg version="1.0" xmlns="http://www.w3.org/2000/svg"
 width="400.000000pt" height="400.000000pt" viewBox="0 0 400.000000 400.000000"
 preserveAspectRatio="xMidYMid meet">

<g transform="translate(0.000000,400.000000) scale(0.100000,-0.100000)"
fill="#000000" stroke="none">
<path d="M1945 3986 c-22 -7 -168 -87 -325 -178 -157 -91 -510 -295 -785 -453
-275 -158 -511 -297 -523 -309 -13 -12 -34 -39 -45 -61 -22 -40 -22 -40 -25
-955 -2 -648 0 -930 8 -967 20 -93 36 -104 625 -444 297 -171 645 -372 774
-446 128 -74 254 -144 279 -155 89 -40 91 -39 640 278 273 158 630 364 792
457 162 94 307 180 322 191 38 30 78 112 78 160 0 52 -30 117 -68 151 -16 14
-151 96 -298 181 -799 461 -964 558 -964 563 0 3 89 57 198 120 1151 663 1093
626 1121 710 29 88 -6 185 -86 238 -27 17 -280 165 -563 328 -283 163 -618
357 -745 430 -126 73 -243 139 -260 148 -45 22 -105 28 -150 13z m-1004 -1621
c86 -49 262 -151 392 -225 130 -74 236 -137 237 -140 0 -3 -94 -59 -208 -124
-114 -66 -243 -141 -287 -167 -132 -77 -388 -224 -397 -227 -4 -2 -8 231 -8
518 l0 521 58 -32 c31 -18 127 -74 213 -124z m1282 -738 c116 -68 363 -211
547 -317 184 -106 339 -196 343 -200 10 -9 14 -6 -643 -385 l-465 -268 -55 30
c-67 36 -1028 591 -1052 607 -14 10 24 35 250 166 147 85 398 230 557 322 160
92 293 168 298 168 4 0 103 -55 220 -123z"/>
</g>
</svg>
